<?xml version="1.0" encoding="utf-8"?>
<!-- Generator: Adobe Illustrator 16.0.0, SVG Export Plug-In . SVG Version: 6.00 Build 0)  -->
<!DOCTYPE svg PUBLIC "-//W3C//DTD SVG 1.1//EN" "http://www.w3.org/Graphics/SVG/1.1/DTD/svg11.dtd">
<svg version="1.1" id="Capa_1" xmlns="http://www.w3.org/2000/svg" xmlns:xlink="http://www.w3.org/1999/xlink" x="0px" y="0px"
	 width="481.75px" height="112.014px" viewBox="0 0 481.75 112.014" enable-background="new 0 0 481.75 112.014"
	 xml:space="preserve">
<g>
	<rect x="1.104" y="34.248" fill-rule="evenodd" clip-rule="evenodd" fill="#5b5b5b" width="14.261" height="54.04"/>
	<path fill-rule="evenodd" clip-rule="evenodd" fill="#5b5b5b" d="M44.115,49.251L39.55,67.545h9.245L44.115,49.251z M35.941,34.248
		h16.235l17.249,54.04H53.924l-2.143-8.802h-15.22l-2.142,8.802H18.806L35.941,34.248z"/>
	<polygon fill-rule="evenodd" clip-rule="evenodd" fill="#5b5b5b" points="72.753,34.248 111.762,34.248 111.762,46.418 
		87.017,46.418 87.017,56.752 109.732,56.752 109.732,68.846 87.017,68.846 87.017,88.288 72.753,88.288 	"/>
	<path fill-rule="evenodd" clip-rule="evenodd" fill="#5b5b5b" d="M132.296,49.251l-4.565,18.294h9.243L132.296,49.251z
		 M124.123,34.248h16.235l17.25,54.04h-15.503l-2.141-8.802h-15.221l-2.142,8.802h-15.615L124.123,34.248z"/>
	<path fill-rule="evenodd" clip-rule="evenodd" fill="#5b5b5b" d="M173.787,48.179c0,0.765,0.169,1.454,0.451,1.915
		c0.959,1.683,4.96,2.908,7.161,3.52c2.706,0.842,5.464,1.531,8.172,2.373c1.748,0.458,3.439,0.994,5.131,1.914
		c5.298,2.678,6.987,8.038,6.987,12.936c0.002,3.596-0.9,6.888-2.083,9.261c-3.327,6.812-10.035,9.797-20.742,9.797
		c-4.005,0-11.952-0.459-16.633-6.124c-3.438-4.134-3.944-9.108-4.169-11.558l14.036-0.537c0.509,3.521,3.158,6.2,8.793,6.2
		c1.464,0,3.55-0.229,4.959-1.3c0.96-0.766,1.974-2.297,1.974-4.134c0-2.525-1.523-3.597-2.649-4.133
		c-1.748-0.765-10.708-2.908-12.681-3.521c-1.582-0.459-3.045-0.994-4.568-1.683c-1.523-0.767-7.893-3.828-7.893-13.701
		c0-4.057,1.243-7.807,3.214-10.563c4.453-6.276,12.458-6.888,16.855-6.888c4.847,0,9.641,0.918,12.118,2.066
		c7.442,3.214,8.402,10.792,8.793,13.701l-13.979,1.071c-0.338-1.76-1.014-4.975-6.989-4.975
		C178.184,43.816,173.787,44.2,173.787,48.179"/>
	<rect x="248.354" y="30.739" fill-rule="evenodd" clip-rule="evenodd" fill="#18b025" width="1.518" height="15.909"/>
	<polygon fill-rule="evenodd" clip-rule="evenodd" fill="#18b025" points="253.381,30.739 254.879,30.739 263.974,44.101 
		264.018,30.739 265.535,30.739 265.535,46.648 264.032,46.652 254.944,33.299 254.901,46.648 253.381,46.648 	"/>
	<path fill-rule="evenodd" clip-rule="evenodd" fill="#18b025" d="M269.736,41.865c0,1.297,0.396,2.255,1.185,2.872
		c0.789,0.62,1.885,0.928,3.283,0.928c1.251,0,2.292-0.301,3.119-0.905c0.825-0.603,1.238-1.381,1.238-2.334
		c0-1.326-0.791-2.254-2.367-2.783c-1.581-0.529-3.129-1.03-4.646-1.507c-1.655-0.76-2.482-2.012-2.482-3.754
		c0-1.326,0.521-2.331,1.564-3.018c1.041-0.685,2.211-1.027,3.508-1.027c1.459,0,2.659,0.271,3.599,0.816
		c0.938,0.543,1.631,1.457,2.077,2.737l-1.406,0.759c-0.313-0.982-0.842-1.716-1.589-2.2c-0.744-0.485-1.638-0.728-2.681-0.728
		c-0.907,0-1.729,0.239-2.458,0.715c-0.729,0.478-1.094,1.125-1.094,1.944c0,1.281,0.82,2.198,2.458,2.749
		c1.521,0.447,3.038,0.894,4.556,1.341c1.655,0.744,2.482,1.981,2.482,3.709c0,1.549-0.519,2.748-1.553,3.596
		c-1.035,0.851-2.477,1.274-4.325,1.274c-1.683,0-3.028-0.344-4.042-1.028c-1.014-0.685-1.662-1.81-1.946-3.373L269.736,41.865z"/>
	<polygon fill-rule="evenodd" clip-rule="evenodd" fill="#18b025" points="281.223,30.739 292.707,30.739 292.707,32.124 
		287.725,32.124 287.725,46.648 286.205,46.648 286.205,32.124 281.223,32.124 	"/>
	<rect x="294.673" y="30.739" fill-rule="evenodd" clip-rule="evenodd" fill="#18b025" width="1.518" height="15.909"/>
	<polygon fill-rule="evenodd" clip-rule="evenodd" fill="#18b025" points="298.159,30.739 309.646,30.739 309.646,32.124 
		304.661,32.124 304.661,46.648 303.144,46.648 303.144,32.124 298.159,32.124 	"/>
	<path fill-rule="evenodd" clip-rule="evenodd" fill="#18b025" d="M323.185,41.487c0,1.8-0.52,3.18-1.563,4.133
		c-1.045,0.953-2.474,1.43-4.291,1.43c-1.805,0-3.229-0.481-4.28-1.441c-1.05-0.962-1.572-2.335-1.572-4.122V30.739h1.518v10.703
		c0,1.459,0.403,2.529,1.207,3.206c0.804,0.679,1.848,1.017,3.128,1.017c1.295,0,2.343-0.335,3.139-1.005
		c0.798-0.671,1.195-1.743,1.195-3.218V30.739h1.521V41.487z"/>
	<polygon fill-rule="evenodd" clip-rule="evenodd" fill="#18b025" points="325.015,30.739 336.502,30.739 336.502,32.124 
		331.518,32.124 331.518,46.648 330,46.648 330,32.124 325.015,32.124 	"/>
	<path fill-rule="evenodd" clip-rule="evenodd" fill="#18b025" d="M344.611,45.665c1.758,0,3.093-0.696,3.998-2.088
		c0.911-1.395,1.366-3.022,1.366-4.883c0-1.863-0.455-3.49-1.366-4.882c-0.905-1.393-2.24-2.09-3.998-2.09
		c-1.757,0-3.091,0.697-4,2.09c-0.908,1.392-1.36,3.021-1.36,4.882c0,1.861,0.452,3.49,1.36,4.883
		C341.521,44.968,342.854,45.665,344.611,45.665 M344.611,30.336c2.221,0,3.92,0.816,5.105,2.447
		c1.185,1.63,1.777,3.602,1.777,5.911s-0.588,4.278-1.767,5.91c-1.177,1.632-2.881,2.447-5.116,2.447
		c-2.22,0-3.919-0.815-5.104-2.447s-1.777-3.601-1.777-5.91s0.587-4.28,1.762-5.911C340.674,31.152,342.376,30.336,344.611,30.336z"
		/>
	<path fill-rule="evenodd" clip-rule="evenodd" fill="#18b025" d="M249.94,67.224h4.221c1.816,0,3.153-0.641,4-1.922
		c0.853-1.28,1.273-2.83,1.273-4.647c0.003-1.743-0.396-3.274-1.194-4.591c-0.796-1.319-2.052-1.978-3.766-1.978l-4.534-0.001
		V67.224z M248.421,52.701h6.255c2.208,0,3.804,0.797,4.794,2.391c0.99,1.593,1.488,3.449,1.488,5.564
		c0,2.056-0.534,3.895-1.602,5.519c-1.063,1.625-2.767,2.436-5.104,2.436h-5.831V52.701z"/>
	<polygon fill-rule="evenodd" clip-rule="evenodd" fill="#18b025" points="263.391,52.701 273.806,52.701 273.806,54.085 
		264.911,54.085 264.911,59.715 272.934,59.715 272.934,61.103 264.911,61.103 264.911,67.224 274.275,67.224 274.275,68.61 
		263.391,68.61 	"/>
	<path fill-rule="evenodd" clip-rule="evenodd" fill="#18b025" d="M291.246,62.578l-2.938-7.825l-3.04,7.825H291.246z
		 M288.998,52.701l6.17,15.909l-1.633-0.001l-1.78-4.78h-6.997l-1.899,4.782l-1.569-0.001l6.48-15.909H288.998z"/>
	<polygon fill-rule="evenodd" clip-rule="evenodd" fill="#18b025" points="301.106,61.974 295.119,52.701 296.955,52.699 
		301.909,60.577 306.864,52.695 308.617,52.701 302.629,61.974 302.629,68.61 301.106,68.61 	"/>
	<path fill-rule="evenodd" clip-rule="evenodd" fill="#18b025" d="M321.978,63.448c0,1.803-0.522,3.182-1.565,4.135
		c-1.04,0.952-2.473,1.43-4.289,1.43c-1.802,0-3.228-0.481-4.279-1.442c-1.048-0.961-1.573-2.335-1.573-4.123V52.701h1.521v10.703
		c0,1.459,0.4,2.529,1.204,3.206c0.805,0.679,1.848,1.017,3.128,1.017c1.298,0,2.343-0.335,3.139-1.005
		c0.798-0.67,1.196-1.742,1.196-3.217V52.701h1.52V63.448z"/>
	<path fill-rule="evenodd" clip-rule="evenodd" fill="#18b025" d="M326.87,67.224h4.224c1.818,0,3.149-0.641,4.001-1.922
		c0.848-1.28,1.272-2.83,1.272-4.647c0-1.743-0.398-3.274-1.195-4.591c-0.796-1.319-2.052-1.978-3.768-1.978l-4.534-0.001V67.224z
		 M325.353,52.701h6.258c2.202,0,3.799,0.797,4.791,2.391c0.991,1.593,1.485,3.449,1.485,5.564c0,2.056-0.533,3.895-1.599,5.519
		c-1.065,1.625-2.766,2.436-5.104,2.436h-5.832V52.701z"/>
	<path fill-rule="evenodd" clip-rule="evenodd" fill="#18b025" d="M348.713,62.578l-2.938-7.825l-3.041,7.825H348.713z
		 M346.467,52.701l6.168,15.909l-1.631-0.001l-1.782-4.78h-6.997l-1.899,4.782l-1.566-0.001l6.478-15.909H346.467z"/>
	<polygon fill-rule="evenodd" clip-rule="evenodd" fill="#18b025" points="360.188,52.701 370.555,52.701 370.555,54.085 
		361.707,54.085 361.707,59.404 369.614,59.404 369.614,60.789 361.707,60.789 361.707,68.61 360.188,68.61 	"/>
	<rect x="372.877" y="52.701" fill-rule="evenodd" clip-rule="evenodd" fill="#18b025" width="1.521" height="15.909"/>
	<polygon fill-rule="evenodd" clip-rule="evenodd" fill="#18b025" points="377.904,52.701 379.402,52.701 388.497,66.063 
		388.54,52.701 390.061,52.701 390.061,68.61 388.559,68.614 379.471,55.261 379.424,68.61 377.904,68.61 	"/>
	<path fill-rule="evenodd" clip-rule="evenodd" fill="#18b025" d="M401.694,62.578l-2.938-7.825l-3.042,7.825H401.694z
		 M399.446,52.701l6.166,15.909l-1.629-0.001l-1.782-4.78h-6.997l-1.899,4.782l-1.569-0.001l6.482-15.909H399.446z"/>
	<polygon fill-rule="evenodd" clip-rule="evenodd" fill="#18b025" points="407.286,52.701 408.784,52.701 417.879,66.063 
		417.926,52.701 419.443,52.701 419.443,68.61 417.939,68.614 408.854,55.261 408.809,68.61 407.286,68.61 	"/>
	<path fill-rule="evenodd" clip-rule="evenodd" fill="#18b025" d="M433.702,57.168c-0.357-1.176-0.882-2.051-1.567-2.624
		c-0.686-0.573-1.714-0.862-3.083-0.862c-1.728,0-3.047,0.631-3.956,1.89c-0.907,1.258-1.363,2.952-1.363,5.083
		c0,2.412,0.497,4.178,1.488,5.296c0.989,1.116,2.348,1.675,4.076,1.675c1.207,0,2.157-0.284,2.85-0.85
		c0.693-0.566,1.231-1.407,1.618-2.525l1.455,0.782c-0.537,1.386-1.322,2.395-2.358,3.028c-1.035,0.633-2.321,0.951-3.855,0.951
		c-2.024,0-3.662-0.683-4.916-2.045c-1.248-1.363-1.875-3.467-1.875-6.313c0-2.831,0.637-4.93,1.909-6.301
		c1.272-1.372,2.865-2.056,4.77-2.056c1.61,0,2.908,0.313,3.902,0.938c0.988,0.626,1.797,1.685,2.424,3.173L433.702,57.168z"/>
	<rect x="437.433" y="52.701" fill-rule="evenodd" clip-rule="evenodd" fill="#18b025" width="1.518" height="15.909"/>
	<polygon fill-rule="evenodd" clip-rule="evenodd" fill="#18b025" points="442.123,52.701 452.537,52.701 452.537,54.085 
		443.641,54.085 443.641,59.715 451.665,59.715 451.665,61.103 443.641,61.103 443.641,67.224 453.007,67.224 453.007,68.61 
		442.123,68.61 	"/>
	<path fill-rule="evenodd" clip-rule="evenodd" fill="#18b025" d="M456.893,60.163h4.715c1.459,0,2.479-0.291,3.061-0.871
		c0.582-0.581,0.871-1.303,0.871-2.167c0-0.969-0.289-1.717-0.871-2.246c-0.581-0.528-1.518-0.793-2.816-0.793l-4.959-0.001V60.163z
		 M455.372,52.701h7.038c1.535,0,2.693,0.429,3.477,1.284c0.783,0.857,1.173,1.904,1.173,3.14c0,1.356-0.416,2.421-1.252,3.196
		c-0.831,0.773-1.973,1.161-3.417,1.161l5.092,7.128h-1.919l-5.048-7.062h-3.623v7.062h-1.521V52.701z"/>
	<path fill-rule="evenodd" clip-rule="evenodd" fill="#18b025" d="M477.417,62.578l-2.938-7.825l-3.041,7.825H477.417z
		 M475.17,52.701l6.17,15.909l-1.631-0.001l-1.783-4.78h-6.996l-1.899,4.782l-1.567-0.001l6.478-15.909H475.17z"/>
	<path fill-rule="evenodd" clip-rule="evenodd" fill="#18b025" d="M256.478,84.54l-2.938-7.823l-3.041,7.823H256.478z
		 M254.23,74.663l6.169,15.909h-1.631l-1.781-4.781h-6.997l-1.9,4.784l-1.569-0.002l6.48-15.909H254.23z"/>
	<polygon fill-rule="evenodd" clip-rule="evenodd" fill="#18b025" points="268.284,74.663 269.803,74.663 269.803,89.188 
		278.584,89.188 278.584,90.572 268.284,90.572 	"/>
	<path fill-rule="evenodd" clip-rule="evenodd" fill="#18b025" d="M288.764,84.54l-2.936-7.823l-3.044,7.823H288.764z
		 M286.518,74.663l6.168,15.909h-1.631l-1.78-4.781h-6.999l-1.899,4.784l-1.566-0.002l6.479-15.909H286.518z"/>
	<path fill-rule="evenodd" clip-rule="evenodd" fill="#18b025" d="M308.629,84.54l-2.937-7.823l-3.044,7.823H308.629z
		 M306.383,74.663l6.166,15.909h-1.628l-1.781-4.781h-7l-1.899,4.784l-1.567-0.002l6.48-15.909H306.383z"/>
	<path fill-rule="evenodd" clip-rule="evenodd" fill="#18b025" d="M324.907,79.132c-0.358-1.177-0.879-2.052-1.567-2.625
		c-0.686-0.573-1.713-0.859-3.082-0.859c-1.728-0.001-3.047,0.629-3.956,1.887c-0.908,1.258-1.363,2.954-1.363,5.084
		c0,2.414,0.494,4.179,1.488,5.295c0.989,1.118,2.348,1.677,4.076,1.677c1.207,0,2.157-0.284,2.85-0.85
		c0.692-0.567,1.231-1.408,1.621-2.525l1.452,0.782c-0.539,1.384-1.322,2.394-2.358,3.028c-1.036,0.632-2.318,0.95-3.855,0.95
		c-2.022,0-3.663-0.683-4.916-2.045c-1.248-1.364-1.876-3.467-1.876-6.313c0-2.83,0.637-4.93,1.91-6.302
		c1.272-1.371,2.865-2.056,4.771-2.056c1.609,0,2.906,0.313,3.901,0.938c0.988,0.627,1.796,1.685,2.424,3.175L324.907,79.132z"/>
	<path fill-rule="evenodd" clip-rule="evenodd" fill="#18b025" d="M339.386,79.132c-0.357-1.177-0.882-2.052-1.565-2.625
		c-0.685-0.573-1.713-0.859-3.085-0.859c-1.726-0.001-3.047,0.629-3.953,1.887c-0.911,1.258-1.363,2.954-1.363,5.084
		c0,2.414,0.497,4.179,1.485,5.295c0.992,1.118,2.351,1.677,4.079,1.677c1.205,0,2.154-0.284,2.85-0.85
		c0.69-0.567,1.229-1.408,1.618-2.525l1.452,0.782c-0.534,1.384-1.322,2.394-2.355,3.028c-1.037,0.632-2.321,0.95-3.855,0.95
		c-2.027,0-3.664-0.683-4.916-2.045c-1.251-1.364-1.878-3.467-1.878-6.313c0-2.83,0.636-4.93,1.91-6.302
		c1.273-1.371,2.864-2.056,4.771-2.056c1.608,0,2.907,0.313,3.899,0.938c0.991,0.627,1.797,1.685,2.424,3.175L339.386,79.132z"/>
	<rect x="343.117" y="74.663" fill-rule="evenodd" clip-rule="evenodd" fill="#18b025" width="1.518" height="15.909"/>
	<path fill-rule="evenodd" clip-rule="evenodd" fill="#18b025" d="M355.337,70.596h1.724l-3.063,3.107h-1.137L355.337,70.596z
		 M354.221,89.59c1.759,0,3.093-0.697,4-2.09c0.908-1.393,1.361-3.021,1.361-4.882c0-1.862-0.453-3.49-1.361-4.883
		c-0.907-1.393-2.241-2.088-4-2.088c-1.758-0.001-3.092,0.695-4.001,2.088c-0.907,1.393-1.36,3.021-1.36,4.883
		c0,1.861,0.453,3.489,1.36,4.882C351.129,88.894,352.463,89.59,354.221,89.59z M354.221,74.261c2.219,0,3.922,0.815,5.106,2.447
		c1.185,1.63,1.775,3.601,1.775,5.91c0,2.308-0.591,4.279-1.765,5.911c-1.175,1.63-2.882,2.447-5.117,2.447
		c-2.218,0-3.922-0.816-5.107-2.447c-1.185-1.632-1.776-3.603-1.776-5.911c0-2.309,0.588-4.28,1.768-5.91
		C350.279,75.076,351.988,74.261,354.221,74.261z"/>
	<polygon fill-rule="evenodd" clip-rule="evenodd" fill="#18b025" points="363.872,74.663 365.369,74.663 374.465,88.025 
		374.511,74.663 376.028,74.663 376.028,90.572 374.525,90.578 365.438,77.225 365.394,90.572 363.872,90.572 	"/>
	<path fill-rule="evenodd" clip-rule="evenodd" fill="#18b025" d="M386.442,85.791c0,1.296,0.393,2.254,1.186,2.872
		c0.788,0.618,1.88,0.928,3.28,0.928c1.254,0,2.291-0.301,3.119-0.906c0.827-0.603,1.241-1.382,1.241-2.335
		c0-1.325-0.79-2.252-2.37-2.781c-1.579-0.529-3.126-1.032-4.646-1.508c-1.652-0.76-2.48-2.011-2.48-3.754
		c0-1.326,0.52-2.331,1.563-3.017c1.043-0.685,2.213-1.028,3.511-1.028c1.459,0,2.656,0.272,3.596,0.815
		c0.938,0.544,1.634,1.457,2.078,2.737l-1.407,0.76c-0.313-0.983-0.842-1.716-1.588-2.199c-0.744-0.485-1.639-0.727-2.679-0.727
		c-0.911-0.001-1.729,0.237-2.459,0.714c-0.729,0.477-1.096,1.124-1.096,1.944c0,1.281,0.817,2.198,2.458,2.748
		c1.52,0.448,3.04,0.894,4.558,1.34c1.655,0.746,2.48,1.982,2.48,3.71c0.003,1.549-0.517,2.749-1.553,3.598
		c-1.034,0.85-2.475,1.274-4.325,1.274c-1.682,0-3.031-0.344-4.041-1.029c-1.017-0.686-1.663-1.81-1.944-3.374L386.442,85.791z"/>
	<path fill-rule="evenodd" clip-rule="evenodd" fill="#18b025" d="M405.548,89.59c1.756,0,3.09-0.697,3.998-2.09
		c0.909-1.393,1.363-3.021,1.363-4.882c0-1.862-0.454-3.49-1.363-4.883c-0.908-1.393-2.242-2.088-3.998-2.088
		c-1.76-0.001-3.094,0.695-4,2.088c-0.911,1.393-1.366,3.021-1.366,4.883c0.003,1.861,0.455,3.489,1.366,4.882
		C402.454,88.894,403.788,89.59,405.548,89.59 M405.548,74.261c2.218,0,3.92,0.815,5.103,2.447c1.185,1.63,1.777,3.601,1.777,5.91
		c0,2.308-0.588,4.279-1.767,5.911c-1.174,1.63-2.881,2.447-5.113,2.447c-2.223,0-3.921-0.816-5.106-2.447
		c-1.185-1.632-1.777-3.603-1.777-5.911c0-2.309,0.587-4.28,1.765-5.91C401.607,75.076,403.311,74.261,405.548,74.261z"/>
	<path fill-rule="evenodd" clip-rule="evenodd" fill="#18b025" d="M425.877,79.132c-0.354-1.177-0.876-2.052-1.562-2.625
		c-0.686-0.573-1.714-0.859-3.086-0.859c-1.727-0.001-3.044,0.629-3.953,1.887c-0.907,1.258-1.363,2.954-1.363,5.084
		c0,2.414,0.495,4.179,1.488,5.295c0.989,1.118,2.346,1.677,4.079,1.677c1.204,0,2.154-0.284,2.845-0.85
		c0.695-0.567,1.233-1.408,1.62-2.525l1.455,0.782c-0.536,1.384-1.322,2.394-2.358,3.028c-1.034,0.632-2.322,0.95-3.855,0.95
		c-2.027,0-3.664-0.683-4.916-2.045c-1.248-1.364-1.875-3.467-1.875-6.313c0-2.83,0.637-4.93,1.909-6.302
		c1.272-1.371,2.865-2.056,4.77-2.056c1.61,0,2.908,0.313,3.902,0.938c0.988,0.627,1.797,1.685,2.424,3.175L425.877,79.132z"/>
	<rect x="429.611" y="74.663" fill-rule="evenodd" clip-rule="evenodd" fill="#18b025" width="1.52" height="15.909"/>
	<path fill-rule="evenodd" clip-rule="evenodd" fill="#18b025" d="M442.695,84.54l-2.938-7.823l-3.041,7.823H442.695z
		 M440.448,74.663l6.169,15.909h-1.633l-1.779-4.781h-6.997l-1.899,4.784l-1.569-0.002l6.479-15.909H440.448z"/>
	<polygon fill-rule="evenodd" clip-rule="evenodd" fill="#18b025" points="448.289,74.663 449.81,74.663 449.81,89.188 
		458.592,89.188 458.592,90.572 448.289,90.572 	"/>
	<rect x="224.147" fill-rule="evenodd" clip-rule="evenodd" fill="#18b025" width="0.974" height="112.014"/>
	<path fill-rule="evenodd" clip-rule="evenodd" fill="#18b025" d="M36.474,79.813c19.167-6.417,25.687-9.464,41.007-22.619
		c14.492-12.63,22.513-22.155,31.62-39.125c-10.716,16.157-19.973,25.008-36.51,35.167c-11.655,7.321-19.888,10.609-33.228,13.902
		L36.474,79.813z"/>
</g>
</svg>
